<svg width="1048" height="396" viewBox="0 0 1048 396" fill="none" xmlns="http://www.w3.org/2000/svg">
<path d="M366.217 144.169H407.39V252.316H390.107V165.953C390.107 163.015 387.59 160.54 384.601 160.54C381.612 160.54 379.567 162.396 378.792 165.953L360.722 252.316H323.629L305.56 165.953C304.773 162.396 302.728 160.54 299.75 160.54C296.772 160.54 294.255 163.015 294.255 165.953V252.316H276.973V144.169H318.145L336.529 230.996C337.158 233.779 339.204 235.944 342.193 235.944C345.339 235.944 347.227 233.779 347.856 230.996L366.24 144.169H366.217Z" fill="#273243"/>
<path d="M425.785 222.965V206.583H449.832L468.53 144.169H511.906L530.604 206.583H554.651V222.965H535.324L544.28 252.316H526.053L517.412 222.965H463.036L454.394 252.316H436.168L445.124 222.965H425.796H425.785ZM467.901 206.583H512.535L501.062 167.5C499.961 163.943 496.342 160.861 490.847 160.861H489.589C484.094 160.861 480.475 163.954 479.374 167.5L467.901 206.583Z" fill="#273243"/>
<path d="M572.575 144.169H589.857V180.479C589.857 184.036 592.374 185.881 595.352 185.881C597.397 185.881 598.97 184.953 600.544 183.407L639.986 144.158H664.348L609.028 198.076L664.505 252.304H639.828L600.072 212.757C598.656 211.366 597.397 210.592 595.352 210.592C592.363 210.592 589.857 213.067 589.857 216.005V252.315H572.575V144.169Z" fill="#273243"/>
<path d="M681.01 144.169H698.293V252.316H681.01V144.169Z" fill="#273243"/>
<path d="M792.927 232.233C793.556 234.089 795.287 235.944 798.118 235.944C801.107 235.944 803.625 233.47 803.625 230.532V144.169H820.907V252.316H782.24L748.293 164.252C747.664 162.396 745.934 160.54 743.102 160.54C740.113 160.54 737.607 163.015 737.607 165.953V252.316H720.324V144.169H758.991L792.938 232.233H792.927Z" fill="#273243"/>
<path d="M839.134 222.965V206.583H863.181L881.88 144.169H925.255L943.953 206.583H968.001V222.965H948.673L957.629 252.316H939.402L930.761 222.965H876.385L867.743 252.316H849.517L858.473 222.965H839.145H839.134ZM881.25 206.583H925.884L914.411 167.5C913.31 163.943 909.691 160.861 904.197 160.861H902.938C897.443 160.861 893.825 163.954 892.723 167.5L881.25 206.583Z" fill="#273243"/>
<path d="M128.939 274C127.838 274 126.737 273.934 125.635 273.812C124.692 273.713 123.759 273.569 122.826 273.381C121.455 273.105 120.141 272.741 118.882 272.31C114.039 270.664 109.544 267.891 105.341 263.936C100.554 259.496 96.8348 254.204 93.9244 249.178C93.3513 250.625 92.7783 252.083 92.2052 253.564C91.6883 254.889 91.1826 256.204 90.6769 257.529C90.6545 257.585 90.632 257.629 90.6207 257.684C90.5983 257.75 90.5646 257.828 90.5421 257.894C90.1263 258.965 89.7218 260.048 89.306 261.142C88.5082 263.24 87.7216 265.339 86.935 267.438V267.482C86.463 269.04 85.6764 271.669 83.238 273.05C81.4401 274.099 79.3612 274.132 77.9004 273.713C76.8666 273.414 75.9676 272.895 75.226 272.21C74.8439 271.879 74.5068 271.492 74.2034 271.072C73.6753 270.332 72.2257 267.836 73.5292 264.676C74.372 261.628 75.5856 258.744 76.7542 255.95C77.2262 254.801 77.7094 253.674 78.1364 252.547C78.5521 251.465 78.9679 250.382 79.3837 249.311C80.2377 247.101 81.0805 244.925 81.9345 242.793C83.2829 239.369 84.6314 236.044 85.9686 232.785C78.6757 214.978 75.3271 196.784 73.9337 181.484C73.4955 176.867 73.2258 172.205 73.1134 167.533C73.1134 167.488 73.1134 167.455 73.1134 167.411C73.1134 167.356 73.1134 167.301 73.1134 167.245C73.1022 166.671 73.0909 166.097 73.0797 165.522C72.9898 160.783 73.046 155.923 73.5292 151.073C74.0236 145.881 75.0125 140.733 76.8553 135.851C77.2149 134.868 77.7431 133.52 78.5072 132.04C81.5524 126.064 85.8675 122.75 91.3961 122.142C92.6659 121.976 93.9694 121.987 95.2954 122.142C100.206 122.694 104.319 125.224 107.544 127.698C108.263 128.24 108.982 128.825 109.724 129.455C115.949 134.702 120.983 140.976 125.557 147.129C126.613 148.532 127.681 149.991 128.793 151.548C132.254 146.953 136.165 142.335 140.536 138.027C146.042 132.526 152.548 127.444 160.189 124.495C167.741 121.523 174.404 121.534 180.023 122.993C182.731 123.666 185.394 124.727 187.979 126.185C196.766 131.145 202.958 139.187 207.374 146.798C207.969 145.274 208.576 143.738 209.183 142.181C209.205 142.114 209.228 142.048 209.262 141.993C209.307 141.882 209.352 141.772 209.385 141.661C209.88 140.369 210.385 139.076 210.891 137.751C211.284 136.724 211.655 135.531 212.06 134.26C212.947 131.454 213.948 128.273 215.611 125.434C217.274 122.484 220.409 121.623 222.903 122.142C223.184 122.197 223.454 122.275 223.724 122.363C223.982 122.451 224.241 122.551 224.488 122.672C226.78 123.777 228.668 126.296 228.185 129.554C227.758 132.89 226.331 136.039 225.072 138.822C224.6 139.85 224.162 140.833 223.847 141.639C222.016 146.456 220.229 151.062 218.431 155.558C217.386 158.187 216.33 160.772 215.296 163.313C215.296 163.324 215.296 163.346 215.307 163.357C222.948 182.335 227.342 203.81 228.117 226.157C228.117 226.201 228.117 226.245 228.117 226.289C228.117 226.323 228.117 226.345 228.117 226.378C228.117 226.455 228.117 226.533 228.117 226.621C228.117 226.621 228.117 226.643 228.117 226.654V226.941C228.117 226.941 228.117 226.952 228.117 226.963C228.117 227.052 228.117 227.14 228.117 227.228C228.117 227.262 228.117 227.295 228.117 227.317C228.117 227.372 228.117 227.438 228.117 227.505C228.117 227.582 228.117 227.648 228.117 227.726V227.759C228.129 228.3 228.14 228.852 228.151 229.394C228.252 233.757 228.241 238.231 227.893 242.727C227.432 249.189 226.32 255.618 223.802 261.594C223.454 262.434 223.083 263.218 222.69 263.947C222.083 265.118 221.319 266.367 220.375 267.56C216.948 271.956 212.947 273.436 209.835 273.823C209.812 273.823 209.801 273.823 209.779 273.823C209.239 273.889 208.689 273.934 208.127 273.945C203.98 274.077 199.688 272.486 195.047 269.261C191.766 266.974 188.833 264.356 186.113 261.528C180.944 256.215 176.562 250.283 172.775 244.936C172.663 244.782 172.539 244.616 172.427 244.461C171.303 245.908 170.145 247.333 168.966 248.736C168.898 248.825 168.819 248.913 168.741 249.001C162.538 256.635 154.47 265.207 144.244 270.111C139.052 272.674 133.917 273.956 128.838 273.956L128.939 274ZM201.969 257.717C202.699 258.269 203.396 258.755 204.093 259.186C205.126 259.816 206.025 260.247 206.834 260.501C208.048 260.865 208.441 260.633 208.655 260.501C209.363 260.07 210.217 259.021 211.06 257.253C211.239 256.878 211.419 256.458 211.599 256.005C211.655 255.872 211.7 255.729 211.756 255.596C211.824 255.419 211.88 255.243 211.947 255.055C212.161 254.447 212.352 253.84 212.543 253.21C212.992 251.653 213.397 249.83 213.734 247.731C213.97 246.284 214.15 244.793 214.307 243.169C214.498 241.213 214.622 239.192 214.7 237.005C214.757 235.348 214.779 233.635 214.768 231.879C214.768 231.835 214.768 231.791 214.768 231.735C214.768 231.592 214.768 231.459 214.768 231.316C214.768 230.565 214.745 229.802 214.723 229.04C214.678 227.184 214.599 225.339 214.498 223.506C213.723 209.753 211.341 195.823 207.374 182.037C201.474 195.547 195.058 209.057 187.563 221.871C185.417 225.605 183.18 229.261 180.843 232.829C181.023 233.094 181.214 233.359 181.394 233.624C181.854 234.287 182.304 234.939 182.765 235.58C185.551 239.512 188.057 242.848 190.574 245.941C193.62 249.697 196.238 252.569 198.8 254.978C199.328 255.475 199.834 255.928 200.328 256.347C200.53 256.524 200.733 256.69 200.935 256.855C201.295 257.154 201.643 257.43 201.991 257.695L201.969 257.717ZM103.139 237.888C104.409 240.352 105.757 242.683 107.173 244.892C111.353 251.387 119.59 261.362 130.456 260.578C132.468 260.379 134.524 259.838 136.648 258.976C141.626 256.911 146.918 252.978 152.492 247.201C153.076 246.593 153.649 245.986 154.223 245.378C156.065 243.357 157.942 241.125 159.852 238.695C161.392 236.74 162.886 234.751 164.347 232.719C157.268 222.103 150.672 211.233 144.233 200.606C139.244 192.376 134.153 183.981 128.838 175.729C127.49 177.961 126.242 180.115 125.085 182.147C119.365 192.155 113.837 203.058 108.106 215.641C107.128 217.806 106.162 219.971 105.218 222.114C103.959 224.964 102.712 227.847 101.465 230.797C101.206 231.404 100.948 232.023 100.678 232.641C101.408 234.287 102.217 236.055 103.15 237.899L103.139 237.888ZM168.089 213.376C169.561 215.718 171.056 218.071 172.55 220.391C175.843 215.066 178.922 209.609 181.832 204.097C183.686 200.562 185.473 196.994 187.192 193.415C190.316 186.853 193.328 180.148 196.317 173.365C197.755 170.095 199.193 166.759 200.632 163.357C200.474 162.992 200.306 162.628 200.137 162.252C199.8 161.523 199.452 160.794 199.103 160.076C197.744 157.27 196.081 154.056 194.058 150.874C190.226 144.964 183.057 136.282 173.629 135.442C164.336 135.056 155.144 142.158 148.492 149.118C147.087 150.587 145.727 152.1 144.413 153.636C143.57 154.641 142.772 155.635 141.997 156.596C140.255 158.784 138.569 161.015 136.94 163.291C143.986 173.862 150.559 184.688 156.987 195.271C160.616 201.247 164.313 207.322 168.089 213.354V213.376ZM86.5529 165.743C86.5529 166.063 86.5642 166.395 86.5754 166.715C86.9575 182.335 89.4409 198.22 93.9694 213.95C101.296 197.259 109.825 179.618 120.545 163.28C119.916 162.374 119.298 161.479 118.657 160.584C118.185 159.91 117.702 159.226 117.208 158.541C116.365 157.381 115.511 156.221 114.646 155.072C112.567 152.299 110.488 149.582 108.319 147.041C106.42 144.843 104.678 142.987 102.959 141.352C102.813 141.22 102.656 141.076 102.51 140.943C101.363 139.905 100.183 138.933 98.9699 138.027C98.7789 137.883 98.5991 137.751 98.4193 137.629C97.3742 136.889 96.509 136.381 95.7898 136.028C94.756 135.519 94.0368 135.354 93.5424 135.31C93.0367 135.276 92.8007 135.42 92.6547 135.508C91.0927 136.469 88.8228 140.413 87.553 148.345C87.5306 148.477 87.5081 148.61 87.4856 148.753C87.4856 148.764 87.4856 148.786 87.4856 148.798C87.4856 148.853 87.4744 148.897 87.4631 148.952C87.4407 149.085 87.4294 149.217 87.4069 149.35C87.4069 149.383 87.4069 149.405 87.3957 149.438C87.2384 150.554 87.1035 151.714 86.9799 152.907C86.9462 153.26 86.9125 153.625 86.8788 153.989C86.7327 155.768 86.6316 157.58 86.5642 159.535C86.5192 161.048 86.4967 162.617 86.508 164.23C86.508 164.395 86.508 164.55 86.508 164.716C86.508 165.058 86.508 165.401 86.5192 165.743H86.5529Z" fill="#273243"/>
</svg>
