<svg width="256" height="256" viewBox="0 0 256 256" fill="none" xmlns="http://www.w3.org/2000/svg">
<path d="M94.2713 248C92.5336 248 90.7958 247.895 89.0581 247.703C87.5686 247.546 86.0969 247.32 84.6251 247.023C82.4618 246.587 80.3872 246.012 78.4012 245.331C70.7587 242.733 63.6659 238.355 57.0342 232.11C49.4804 225.099 43.6111 216.744 39.0185 208.808C38.1142 211.093 37.2099 213.395 36.3055 215.732C35.4899 217.825 34.6919 219.901 33.894 221.994C33.8585 222.081 33.8231 222.151 33.8053 222.238C33.7699 222.343 33.7167 222.465 33.6812 222.569C33.0251 224.261 32.3868 225.971 31.7307 227.697C30.4717 231.011 29.2305 234.325 27.9892 237.639V237.709C27.2445 240.169 26.0033 244.32 22.1554 246.5C19.3183 248.157 16.0379 248.209 13.7328 247.546C12.1014 247.076 10.6829 246.256 9.51255 245.174C8.90966 244.651 8.37771 244.041 7.89894 243.378C7.06554 242.209 4.77812 238.267 6.83502 233.279C8.16492 228.465 10.08 223.913 11.9241 219.5C12.6688 217.686 13.4313 215.907 14.1051 214.128C14.7612 212.418 15.4173 210.709 16.0734 209.017C17.421 205.529 18.7509 202.093 20.0985 198.726C22.2264 193.319 24.3542 188.069 26.4643 182.924C14.9563 154.807 9.67214 126.08 7.47338 101.923C6.78183 94.6321 6.35626 87.2716 6.17894 79.8936C6.17894 79.8238 6.17894 79.7715 6.17894 79.7017C6.17894 79.6145 6.17894 79.5273 6.17894 79.4401C6.16121 78.5331 6.14348 77.6261 6.12575 76.7192C5.98389 69.2365 6.07255 61.562 6.83502 53.905C7.61523 45.7072 9.17564 37.5792 12.0837 29.8698C12.6511 28.3175 13.4845 26.1896 14.6903 23.8523C19.4956 14.4162 26.3047 9.18356 35.0288 8.22425C37.0325 7.96262 39.0895 7.98006 41.1818 8.22425C48.9307 9.09635 55.4206 13.0906 60.5097 16.9976C61.6445 17.8523 62.7793 18.7767 63.9497 19.7709C73.7732 28.0559 81.7171 37.9629 88.934 47.6781C90.6008 49.8933 92.2853 52.1956 94.0408 54.655C99.5022 47.3991 105.673 40.1083 112.571 33.3059C121.259 24.6198 131.526 16.5964 143.584 11.9394C155.5 7.24749 166.015 7.26494 174.881 9.56729C179.154 10.6313 183.357 12.3057 187.435 14.608C201.301 22.4395 211.072 35.1373 218.04 47.1549C218.98 44.7479 219.938 42.3234 220.895 39.8641C220.931 39.7595 220.966 39.6548 221.019 39.5676C221.09 39.3932 221.161 39.2188 221.214 39.0443C221.995 37.0036 222.793 34.9629 223.59 32.8699C224.211 31.2477 224.796 29.364 225.435 27.3582C226.835 22.9279 228.414 17.9046 231.038 13.422C233.662 8.76495 238.609 7.40447 242.546 8.22425C242.989 8.31146 243.415 8.43355 243.84 8.57309C244.248 8.71263 244.656 8.8696 245.046 9.06147C248.663 10.8057 251.642 14.7825 250.88 19.9279C250.206 25.1954 247.954 30.1663 245.968 34.5617C245.223 36.1838 244.532 37.7362 244.035 39.0095C241.145 46.6142 238.326 53.8875 235.489 60.9864C233.84 65.1376 232.173 69.2191 230.541 73.2307C230.541 73.2482 230.541 73.2831 230.559 73.3005C242.617 103.266 249.55 137.173 250.774 172.459C250.774 172.528 250.774 172.598 250.774 172.668C250.774 172.72 250.774 172.755 250.774 172.807C250.774 172.929 250.774 173.052 250.774 173.191C250.774 173.191 250.774 173.226 250.774 173.243V173.697C250.774 173.697 250.774 173.714 250.774 173.732C250.774 173.871 250.774 174.011 250.774 174.15C250.774 174.203 250.774 174.255 250.774 174.29C250.774 174.377 250.774 174.482 250.774 174.586C250.774 174.709 250.774 174.813 250.774 174.935V174.988C250.791 175.842 250.809 176.714 250.827 177.569C250.986 184.459 250.969 191.523 250.419 198.622C249.692 208.825 247.936 218.976 243.964 228.413C243.415 229.738 242.83 230.977 242.209 232.128C241.251 233.977 240.046 235.948 238.556 237.831C233.148 244.773 226.835 247.11 221.924 247.721C221.888 247.721 221.87 247.721 221.835 247.721C220.984 247.826 220.115 247.895 219.228 247.913C212.685 248.122 205.912 245.61 198.588 240.517C193.411 236.907 188.783 232.773 184.491 228.308C176.335 219.918 169.419 210.552 163.444 202.11C163.266 201.866 163.071 201.604 162.894 201.36C161.121 203.645 159.294 205.895 157.433 208.11C157.326 208.25 157.202 208.389 157.078 208.529C147.29 220.581 134.558 234.116 118.422 241.86C110.23 245.907 102.127 247.93 94.1117 247.93L94.2713 248ZM209.511 222.29C210.664 223.163 211.763 223.93 212.863 224.61C214.494 225.604 215.913 226.285 217.189 226.686C219.104 227.261 219.725 226.895 220.062 226.686C221.179 226.006 222.527 224.349 223.856 221.558C224.14 220.965 224.424 220.302 224.708 219.587C224.796 219.378 224.867 219.151 224.956 218.942C225.062 218.662 225.151 218.383 225.257 218.087C225.594 217.128 225.896 216.168 226.197 215.174C226.906 212.715 227.545 209.837 228.077 206.523C228.449 204.238 228.733 201.883 228.981 199.319C229.282 196.232 229.477 193.04 229.602 189.587C229.69 186.97 229.726 184.267 229.708 181.493C229.708 181.424 229.708 181.354 229.708 181.267C229.708 181.04 229.708 180.831 229.708 180.604C229.708 179.418 229.673 178.214 229.637 177.011C229.566 174.081 229.442 171.168 229.282 168.272C228.059 146.557 224.3 124.563 218.04 102.795C208.731 124.127 198.606 145.458 186.779 165.691C183.392 171.586 179.863 177.36 176.175 182.994C176.459 183.412 176.76 183.831 177.044 184.249C177.771 185.296 178.48 186.325 179.207 187.337C183.605 193.546 187.559 198.813 191.531 203.697C196.336 209.627 200.468 214.162 204.511 217.965C205.344 218.75 206.142 219.465 206.922 220.128C207.242 220.407 207.561 220.668 207.88 220.93C208.447 221.401 208.997 221.837 209.547 222.256L209.511 222.29ZM53.5587 190.982C55.5624 194.872 57.6903 198.552 59.9245 202.04C66.5208 212.296 79.5183 228.046 96.6651 226.808C99.8391 226.494 103.084 225.639 106.435 224.279C114.291 221.017 122.642 214.808 131.437 205.686C132.36 204.726 133.264 203.767 134.168 202.808C137.076 199.616 140.037 196.092 143.052 192.255C145.481 189.168 147.84 186.028 150.145 182.819C138.974 166.057 128.565 148.894 118.404 132.115C110.532 119.121 102.499 105.865 94.1117 92.8356C91.9839 96.3589 90.0156 99.7601 88.1892 102.969C79.1637 118.772 70.4396 135.987 61.3963 155.854C59.8536 159.272 58.3286 162.691 56.8391 166.075C54.8532 170.575 52.8849 175.127 50.9167 179.784C50.5088 180.743 50.101 181.72 49.6754 182.697C50.828 185.296 52.1047 188.087 53.5765 190.999L53.5587 190.982ZM156.049 152.278C158.372 155.976 160.731 159.691 163.089 163.354C168.284 154.947 173.143 146.33 177.736 137.627C180.661 132.045 183.481 126.412 186.194 120.76C191.123 110.4 195.875 99.8124 200.592 89.103C202.862 83.9402 205.131 78.6727 207.401 73.3005C207.153 72.7249 206.887 72.1493 206.621 71.5563C206.089 70.4051 205.539 69.254 204.99 68.1202C202.844 63.6899 200.22 58.6143 197.028 53.591C190.981 44.2595 179.668 30.5501 164.791 29.2245C150.127 28.614 135.622 39.8292 125.125 50.8177C122.908 53.1375 120.763 55.5271 118.688 57.9515C117.358 59.5387 116.099 61.1085 114.876 62.626C112.127 66.0795 109.468 69.6028 106.896 73.1959C118.014 89.8879 128.388 106.981 138.53 123.691C144.258 133.127 150.091 142.72 156.049 152.243V152.278ZM27.3864 77.068C27.3864 77.5738 27.4041 78.0971 27.4218 78.6029C28.0247 103.266 31.9435 128.348 39.0895 153.185C50.6507 126.83 64.1092 98.9752 81.0255 73.1784C80.0325 71.7482 79.0573 70.3354 78.0466 68.9226C77.3018 67.8586 76.5393 66.7772 75.7591 65.6958C74.4292 63.8644 73.0816 62.0329 71.7163 60.219C68.4358 55.841 65.1554 51.5503 61.7332 47.5386C58.7365 44.0676 55.988 41.1374 53.275 38.556C53.0445 38.3467 52.7963 38.1199 52.5657 37.9106C50.7571 36.2711 48.8952 34.7362 46.9802 33.3059C46.6787 33.0792 46.395 32.8699 46.1113 32.678C44.4622 31.5094 43.0969 30.707 41.962 30.1489C40.3307 29.3466 39.1958 29.0849 38.4156 29.0152C37.6177 28.9628 37.2453 29.1896 37.0148 29.3291C34.5501 30.8466 30.9682 37.0734 28.9645 49.5968C28.929 49.8061 28.8936 50.0154 28.8581 50.2421C28.8581 50.2596 28.8581 50.2945 28.8581 50.3119C28.8581 50.3991 28.8404 50.4689 28.8227 50.5561C28.7872 50.7654 28.7695 50.9747 28.734 51.184C28.734 51.2363 28.734 51.2712 28.7163 51.3235C28.468 53.0852 28.2552 54.9166 28.0602 56.8003C28.007 57.3585 27.9538 57.9341 27.9006 58.5097C27.6701 61.3178 27.5105 64.1783 27.4041 67.2656C27.3332 69.6551 27.2977 72.1319 27.3154 74.6784C27.3154 74.9401 27.3154 75.1842 27.3154 75.4459C27.3154 75.9866 27.3154 76.5273 27.3332 77.068H27.3864Z" fill="url(#paint0_linear_161_1440)"/>
<defs>
<linearGradient id="paint0_linear_161_1440" x1="12.125" y1="13" x2="78.1059" y2="442.082" gradientUnits="userSpaceOnUse">
<stop stop-color="#9FB3C3"/>
<stop offset="0.307692" stop-color="#EAEFF3"/>
<stop offset="0.413462" stop-color="#D4DEE5"/>
<stop offset="0.663462" stop-color="#ABBDC8"/>
<stop offset="0.955" stop-color="#BCCAD7"/>
</linearGradient>
</defs>
</svg>
